G04 #@! TF.GenerationSoftware,KiCad,Pcbnew,5.99.0+really5.1.12+dfsg1-1*
G04 #@! TF.CreationDate,2021-11-22T15:57:05+08:00*
G04 #@! TF.ProjectId,probe1,70726f62-6531-42e6-9b69-6361645f7063,rev?*
G04 #@! TF.SameCoordinates,Original*
G04 #@! TF.FileFunction,Legend,Top*
G04 #@! TF.FilePolarity,Positive*
%FSLAX46Y46*%
G04 Gerber Fmt 4.6, Leading zero omitted, Abs format (unit mm)*
G04 Created by KiCad (PCBNEW 5.99.0+really5.1.12+dfsg1-1) date 2021-11-22 15:57:05*
%MOMM*%
%LPD*%
G01*
G04 APERTURE LIST*
%ADD10C,0.150000*%
%ADD11C,0.120000*%
G04 APERTURE END LIST*
D10*
X93842857Y-88707142D02*
X93795238Y-88754761D01*
X93652380Y-88802380D01*
X93557142Y-88802380D01*
X93414285Y-88754761D01*
X93319047Y-88659523D01*
X93271428Y-88564285D01*
X93223809Y-88373809D01*
X93223809Y-88230952D01*
X93271428Y-88040476D01*
X93319047Y-87945238D01*
X93414285Y-87850000D01*
X93557142Y-87802380D01*
X93652380Y-87802380D01*
X93795238Y-87850000D01*
X93842857Y-87897619D01*
X94700000Y-88802380D02*
X94700000Y-88278571D01*
X94652380Y-88183333D01*
X94557142Y-88135714D01*
X94366666Y-88135714D01*
X94271428Y-88183333D01*
X94700000Y-88754761D02*
X94604761Y-88802380D01*
X94366666Y-88802380D01*
X94271428Y-88754761D01*
X94223809Y-88659523D01*
X94223809Y-88564285D01*
X94271428Y-88469047D01*
X94366666Y-88421428D01*
X94604761Y-88421428D01*
X94700000Y-88373809D01*
X95176190Y-88135714D02*
X95176190Y-89135714D01*
X95176190Y-88183333D02*
X95271428Y-88135714D01*
X95461904Y-88135714D01*
X95557142Y-88183333D01*
X95604761Y-88230952D01*
X95652380Y-88326190D01*
X95652380Y-88611904D01*
X95604761Y-88707142D01*
X95557142Y-88754761D01*
X95461904Y-88802380D01*
X95271428Y-88802380D01*
X95176190Y-88754761D01*
X96509523Y-88802380D02*
X96509523Y-88278571D01*
X96461904Y-88183333D01*
X96366666Y-88135714D01*
X96176190Y-88135714D01*
X96080952Y-88183333D01*
X96509523Y-88754761D02*
X96414285Y-88802380D01*
X96176190Y-88802380D01*
X96080952Y-88754761D01*
X96033333Y-88659523D01*
X96033333Y-88564285D01*
X96080952Y-88469047D01*
X96176190Y-88421428D01*
X96414285Y-88421428D01*
X96509523Y-88373809D01*
X97414285Y-88754761D02*
X97319047Y-88802380D01*
X97128571Y-88802380D01*
X97033333Y-88754761D01*
X96985714Y-88707142D01*
X96938095Y-88611904D01*
X96938095Y-88326190D01*
X96985714Y-88230952D01*
X97033333Y-88183333D01*
X97128571Y-88135714D01*
X97319047Y-88135714D01*
X97414285Y-88183333D01*
X97842857Y-88802380D02*
X97842857Y-88135714D01*
X97842857Y-87802380D02*
X97795238Y-87850000D01*
X97842857Y-87897619D01*
X97890476Y-87850000D01*
X97842857Y-87802380D01*
X97842857Y-87897619D01*
X98176190Y-88135714D02*
X98557142Y-88135714D01*
X98319047Y-87802380D02*
X98319047Y-88659523D01*
X98366666Y-88754761D01*
X98461904Y-88802380D01*
X98557142Y-88802380D01*
X98890476Y-88802380D02*
X98890476Y-88135714D01*
X98890476Y-87802380D02*
X98842857Y-87850000D01*
X98890476Y-87897619D01*
X98938095Y-87850000D01*
X98890476Y-87802380D01*
X98890476Y-87897619D01*
X99271428Y-88135714D02*
X99509523Y-88802380D01*
X99747619Y-88135714D01*
X100509523Y-88754761D02*
X100414285Y-88802380D01*
X100223809Y-88802380D01*
X100128571Y-88754761D01*
X100080952Y-88659523D01*
X100080952Y-88278571D01*
X100128571Y-88183333D01*
X100223809Y-88135714D01*
X100414285Y-88135714D01*
X100509523Y-88183333D01*
X100557142Y-88278571D01*
X100557142Y-88373809D01*
X100080952Y-88469047D01*
X101700000Y-88754761D02*
X101842857Y-88802380D01*
X102080952Y-88802380D01*
X102176190Y-88754761D01*
X102223809Y-88707142D01*
X102271428Y-88611904D01*
X102271428Y-88516666D01*
X102223809Y-88421428D01*
X102176190Y-88373809D01*
X102080952Y-88326190D01*
X101890476Y-88278571D01*
X101795238Y-88230952D01*
X101747619Y-88183333D01*
X101700000Y-88088095D01*
X101700000Y-87992857D01*
X101747619Y-87897619D01*
X101795238Y-87850000D01*
X101890476Y-87802380D01*
X102128571Y-87802380D01*
X102271428Y-87850000D01*
X102842857Y-88802380D02*
X102747619Y-88754761D01*
X102700000Y-88707142D01*
X102652380Y-88611904D01*
X102652380Y-88326190D01*
X102700000Y-88230952D01*
X102747619Y-88183333D01*
X102842857Y-88135714D01*
X102985714Y-88135714D01*
X103080952Y-88183333D01*
X103128571Y-88230952D01*
X103176190Y-88326190D01*
X103176190Y-88611904D01*
X103128571Y-88707142D01*
X103080952Y-88754761D01*
X102985714Y-88802380D01*
X102842857Y-88802380D01*
X103604761Y-88802380D02*
X103604761Y-88135714D01*
X103604761Y-87802380D02*
X103557142Y-87850000D01*
X103604761Y-87897619D01*
X103652380Y-87850000D01*
X103604761Y-87802380D01*
X103604761Y-87897619D01*
X104223809Y-88802380D02*
X104128571Y-88754761D01*
X104080952Y-88659523D01*
X104080952Y-87802380D01*
X92890476Y-90452380D02*
X92890476Y-89452380D01*
X93223809Y-90166666D01*
X93557142Y-89452380D01*
X93557142Y-90452380D01*
X94176190Y-90452380D02*
X94080952Y-90404761D01*
X94033333Y-90357142D01*
X93985714Y-90261904D01*
X93985714Y-89976190D01*
X94033333Y-89880952D01*
X94080952Y-89833333D01*
X94176190Y-89785714D01*
X94319047Y-89785714D01*
X94414285Y-89833333D01*
X94461904Y-89880952D01*
X94509523Y-89976190D01*
X94509523Y-90261904D01*
X94461904Y-90357142D01*
X94414285Y-90404761D01*
X94319047Y-90452380D01*
X94176190Y-90452380D01*
X94938095Y-90452380D02*
X94938095Y-89785714D01*
X94938095Y-89452380D02*
X94890476Y-89500000D01*
X94938095Y-89547619D01*
X94985714Y-89500000D01*
X94938095Y-89452380D01*
X94938095Y-89547619D01*
X95366666Y-90404761D02*
X95461904Y-90452380D01*
X95652380Y-90452380D01*
X95747619Y-90404761D01*
X95795238Y-90309523D01*
X95795238Y-90261904D01*
X95747619Y-90166666D01*
X95652380Y-90119047D01*
X95509523Y-90119047D01*
X95414285Y-90071428D01*
X95366666Y-89976190D01*
X95366666Y-89928571D01*
X95414285Y-89833333D01*
X95509523Y-89785714D01*
X95652380Y-89785714D01*
X95747619Y-89833333D01*
X96080952Y-89785714D02*
X96461904Y-89785714D01*
X96223809Y-89452380D02*
X96223809Y-90309523D01*
X96271428Y-90404761D01*
X96366666Y-90452380D01*
X96461904Y-90452380D01*
X97223809Y-89785714D02*
X97223809Y-90452380D01*
X96795238Y-89785714D02*
X96795238Y-90309523D01*
X96842857Y-90404761D01*
X96938095Y-90452380D01*
X97080952Y-90452380D01*
X97176190Y-90404761D01*
X97223809Y-90357142D01*
X97700000Y-90452380D02*
X97700000Y-89785714D01*
X97700000Y-89976190D02*
X97747619Y-89880952D01*
X97795238Y-89833333D01*
X97890476Y-89785714D01*
X97985714Y-89785714D01*
X98700000Y-90404761D02*
X98604761Y-90452380D01*
X98414285Y-90452380D01*
X98319047Y-90404761D01*
X98271428Y-90309523D01*
X98271428Y-89928571D01*
X98319047Y-89833333D01*
X98414285Y-89785714D01*
X98604761Y-89785714D01*
X98700000Y-89833333D01*
X98747619Y-89928571D01*
X98747619Y-90023809D01*
X98271428Y-90119047D01*
X99890476Y-90404761D02*
X100033333Y-90452380D01*
X100271428Y-90452380D01*
X100366666Y-90404761D01*
X100414285Y-90357142D01*
X100461904Y-90261904D01*
X100461904Y-90166666D01*
X100414285Y-90071428D01*
X100366666Y-90023809D01*
X100271428Y-89976190D01*
X100080952Y-89928571D01*
X99985714Y-89880952D01*
X99938095Y-89833333D01*
X99890476Y-89738095D01*
X99890476Y-89642857D01*
X99938095Y-89547619D01*
X99985714Y-89500000D01*
X100080952Y-89452380D01*
X100319047Y-89452380D01*
X100461904Y-89500000D01*
X101271428Y-90404761D02*
X101176190Y-90452380D01*
X100985714Y-90452380D01*
X100890476Y-90404761D01*
X100842857Y-90309523D01*
X100842857Y-89928571D01*
X100890476Y-89833333D01*
X100985714Y-89785714D01*
X101176190Y-89785714D01*
X101271428Y-89833333D01*
X101319047Y-89928571D01*
X101319047Y-90023809D01*
X100842857Y-90119047D01*
X101747619Y-89785714D02*
X101747619Y-90452380D01*
X101747619Y-89880952D02*
X101795238Y-89833333D01*
X101890476Y-89785714D01*
X102033333Y-89785714D01*
X102128571Y-89833333D01*
X102176190Y-89928571D01*
X102176190Y-90452380D01*
X102604761Y-90404761D02*
X102700000Y-90452380D01*
X102890476Y-90452380D01*
X102985714Y-90404761D01*
X103033333Y-90309523D01*
X103033333Y-90261904D01*
X102985714Y-90166666D01*
X102890476Y-90119047D01*
X102747619Y-90119047D01*
X102652380Y-90071428D01*
X102604761Y-89976190D01*
X102604761Y-89928571D01*
X102652380Y-89833333D01*
X102747619Y-89785714D01*
X102890476Y-89785714D01*
X102985714Y-89833333D01*
X103604761Y-90452380D02*
X103509523Y-90404761D01*
X103461904Y-90357142D01*
X103414285Y-90261904D01*
X103414285Y-89976190D01*
X103461904Y-89880952D01*
X103509523Y-89833333D01*
X103604761Y-89785714D01*
X103747619Y-89785714D01*
X103842857Y-89833333D01*
X103890476Y-89880952D01*
X103938095Y-89976190D01*
X103938095Y-90261904D01*
X103890476Y-90357142D01*
X103842857Y-90404761D01*
X103747619Y-90452380D01*
X103604761Y-90452380D01*
X104366666Y-90452380D02*
X104366666Y-89785714D01*
X104366666Y-89976190D02*
X104414285Y-89880952D01*
X104461904Y-89833333D01*
X104557142Y-89785714D01*
X104652380Y-89785714D01*
X96747619Y-92102380D02*
X96747619Y-91435714D01*
X96747619Y-91626190D02*
X96795238Y-91530952D01*
X96842857Y-91483333D01*
X96938095Y-91435714D01*
X97033333Y-91435714D01*
X97747619Y-92054761D02*
X97652380Y-92102380D01*
X97461904Y-92102380D01*
X97366666Y-92054761D01*
X97319047Y-91959523D01*
X97319047Y-91578571D01*
X97366666Y-91483333D01*
X97461904Y-91435714D01*
X97652380Y-91435714D01*
X97747619Y-91483333D01*
X97795238Y-91578571D01*
X97795238Y-91673809D01*
X97319047Y-91769047D01*
X98128571Y-91435714D02*
X98366666Y-92102380D01*
X98604761Y-91435714D01*
X98985714Y-92007142D02*
X99033333Y-92054761D01*
X98985714Y-92102380D01*
X98938095Y-92054761D01*
X98985714Y-92007142D01*
X98985714Y-92102380D01*
X100652380Y-92102380D02*
X100652380Y-91578571D01*
X100604761Y-91483333D01*
X100509523Y-91435714D01*
X100319047Y-91435714D01*
X100223809Y-91483333D01*
X100652380Y-92054761D02*
X100557142Y-92102380D01*
X100319047Y-92102380D01*
X100223809Y-92054761D01*
X100176190Y-91959523D01*
X100176190Y-91864285D01*
X100223809Y-91769047D01*
X100319047Y-91721428D01*
X100557142Y-91721428D01*
X100652380Y-91673809D01*
D11*
G04 #@! TO.C,R1*
X86020000Y-92090000D02*
X86020000Y-88250000D01*
X84180000Y-92090000D02*
X84180000Y-88250000D01*
G04 #@! TO.C,J1*
X81570000Y-95270000D02*
X80300000Y-95270000D01*
X81570000Y-94000000D02*
X81570000Y-95270000D01*
X79257071Y-86000000D02*
X78860000Y-86000000D01*
X79257071Y-86760000D02*
X78860000Y-86760000D01*
X70200000Y-86000000D02*
X76200000Y-86000000D01*
X70200000Y-86760000D02*
X70200000Y-86000000D01*
X76200000Y-86760000D02*
X70200000Y-86760000D01*
X78860000Y-87650000D02*
X76200000Y-87650000D01*
X79257071Y-88540000D02*
X78860000Y-88540000D01*
X79257071Y-89300000D02*
X78860000Y-89300000D01*
X70200000Y-88540000D02*
X76200000Y-88540000D01*
X70200000Y-89300000D02*
X70200000Y-88540000D01*
X76200000Y-89300000D02*
X70200000Y-89300000D01*
X78860000Y-90190000D02*
X76200000Y-90190000D01*
X79257071Y-91080000D02*
X78860000Y-91080000D01*
X79257071Y-91840000D02*
X78860000Y-91840000D01*
X70200000Y-91080000D02*
X76200000Y-91080000D01*
X70200000Y-91840000D02*
X70200000Y-91080000D01*
X76200000Y-91840000D02*
X70200000Y-91840000D01*
X78860000Y-92730000D02*
X76200000Y-92730000D01*
X79190000Y-93620000D02*
X78860000Y-93620000D01*
X79190000Y-94380000D02*
X78860000Y-94380000D01*
X76200000Y-93720000D02*
X70200000Y-93720000D01*
X76200000Y-93840000D02*
X70200000Y-93840000D01*
X76200000Y-93960000D02*
X70200000Y-93960000D01*
X76200000Y-94080000D02*
X70200000Y-94080000D01*
X76200000Y-94200000D02*
X70200000Y-94200000D01*
X76200000Y-94320000D02*
X70200000Y-94320000D01*
X70200000Y-93620000D02*
X76200000Y-93620000D01*
X70200000Y-94380000D02*
X70200000Y-93620000D01*
X76200000Y-94380000D02*
X70200000Y-94380000D01*
X76200000Y-95330000D02*
X78860000Y-95330000D01*
X76200000Y-85050000D02*
X76200000Y-95330000D01*
X78860000Y-85050000D02*
X76200000Y-85050000D01*
X78860000Y-95330000D02*
X78860000Y-85050000D01*
G04 #@! TO.C,R1*
D10*
X83632380Y-90336666D02*
X83156190Y-90670000D01*
X83632380Y-90908095D02*
X82632380Y-90908095D01*
X82632380Y-90527142D01*
X82680000Y-90431904D01*
X82727619Y-90384285D01*
X82822857Y-90336666D01*
X82965714Y-90336666D01*
X83060952Y-90384285D01*
X83108571Y-90431904D01*
X83156190Y-90527142D01*
X83156190Y-90908095D01*
X83632380Y-89384285D02*
X83632380Y-89955714D01*
X83632380Y-89670000D02*
X82632380Y-89670000D01*
X82775238Y-89765238D01*
X82870476Y-89860476D01*
X82918095Y-89955714D01*
G04 #@! TO.C,J1*
X75581666Y-95722380D02*
X75581666Y-96436666D01*
X75534047Y-96579523D01*
X75438809Y-96674761D01*
X75295952Y-96722380D01*
X75200714Y-96722380D01*
X76581666Y-96722380D02*
X76010238Y-96722380D01*
X76295952Y-96722380D02*
X76295952Y-95722380D01*
X76200714Y-95865238D01*
X76105476Y-95960476D01*
X76010238Y-96008095D01*
G04 #@! TD*
M02*
